HIERARCHY
ROOT SpineBase
{
  OFFSET 0.000000 0.000000 0.000000
  CHANNELS 6 Xposition Yposition Zposition Zrotation Xrotation Yrotation
  JOINT SpineMid
  {
    OFFSET 0.000000 29.282831 0.000000
    CHANNELS 3 Zrotation Xrotation Yrotation
    JOINT SpineShoulder
    {
      OFFSET 0.058884 21.608358 -0.719960
      CHANNELS 3 Zrotation Xrotation Yrotation
      JOINT Neck
      {
        OFFSET 0.035755 7.112235 -0.545215
        CHANNELS 3 Zrotation Xrotation Yrotation
        JOINT Head
        {
          OFFSET 5.557950 12.043674 3.016607
          CHANNELS 3 Zrotation Xrotation Yrotation
          End Site
          {
            OFFSET 0 0 0
          }
        }
      }
      JOINT ShoulderLeft
      {
        OFFSET -10.068251 -3.787479 -12.932336
        CHANNELS 3 Zrotation Xrotation Yrotation
        JOINT ElbowLeft
        {
          OFFSET -4.050458 -19.924863 -5.351473
          CHANNELS 3 Zrotation Xrotation Yrotation
          JOINT WristLeft
          {
            OFFSET 5.100250 -19.321808 -2.088799
            CHANNELS 3 Zrotation Xrotation Yrotation
            JOINT HandLeft
            {
              OFFSET 2.564821 -8.127255 0.545919
              CHANNELS 3 Zrotation Xrotation Yrotation
              JOINT HandTipLeft
              {
                OFFSET 2.631140 -6.605132 -1.215382
                CHANNELS 3 Zrotation Xrotation Yrotation
                End Site
                {
                  OFFSET 0 0 0
                }
              }
              JOINT ThumbLeft
              {
                OFFSET -2.729048 -0.603334 -1.062210
                CHANNELS 3 Zrotation Xrotation Yrotation
                End Site
                {
                  OFFSET 0 0 0
                }
              }
            }
          }
        }
      }
      JOINT ShoulderRight
      {
        OFFSET 12.607228 -9.638662 9.542460
        CHANNELS 3 Zrotation Xrotation Yrotation
        JOINT ElbowRight
        {
          OFFSET 2.745493 -24.641133 0.679090
          CHANNELS 3 Zrotation Xrotation Yrotation
          JOINT WristRight
          {
            OFFSET 0.228781 -19.290157 -0.551347
            CHANNELS 3 Zrotation Xrotation Yrotation
            JOINT HandRight
            {
              OFFSET -0.251247 -4.076510 -2.004344
              CHANNELS 3 Zrotation Xrotation Yrotation
              JOINT HandTipRight
              {
                OFFSET 1.776770 -5.086701 -0.097963
                CHANNELS 3 Zrotation Xrotation Yrotation
                End Site
                {
                  OFFSET 0 0 0
                }
              }
              JOINT ThumbRight
              {
                OFFSET 2.923384 -1.190032 -1.631691
                CHANNELS 3 Zrotation Xrotation Yrotation
                End Site
                {
                  OFFSET 0 0 0
                }
              }
            }
          }
        }
      }
    }
  }
  JOINT HipLeft
  {
    OFFSET -3.632332 1.325369 -8.340434
    CHANNELS 3 Zrotation Xrotation Yrotation
    JOINT KneeLeft
    {
      OFFSET -13.248782 -37.448266 -0.763430
      CHANNELS 3 Zrotation Xrotation Yrotation
      JOINT AnkleLeft
      {
        OFFSET -6.009238 -29.307510 0.027216
        CHANNELS 3 Zrotation Xrotation Yrotation
        JOINT FootLeft
        {
          OFFSET 0.046384 -6.955442 -7.646923
          CHANNELS 3 Zrotation Xrotation Yrotation
          End Site
          {
            OFFSET 0 0 0
          }
        }
      }
    }
  }
  JOINT HipRight
  {
    OFFSET 3.619074 -0.496733 1.419515
    CHANNELS 3 Zrotation Xrotation Yrotation
    JOINT KneeRight
    {
      OFFSET -2.861585 -34.758062 7.293826
      CHANNELS 3 Zrotation Xrotation Yrotation
      JOINT AnkleRight
      {
        OFFSET -2.821578 -28.343372 4.326022
        CHANNELS 3 Zrotation Xrotation Yrotation
        JOINT FootRight
        {
          OFFSET 4.890197 -6.723844 -3.395048
          CHANNELS 3 Zrotation Xrotation Yrotation
          End Site
          {
            OFFSET 0 0 0
          }
        }
      }
    }
  }
}
MOTION
Frames: 5
Frame Time: 0.033333
3.267804 73.511627 344.807299 -0.777775 0.489930 -55.678484 -0.280360 0.027040 55.650519 0.046065 0.037224 -0.037391 0.868395 -0.772856 0.076277 0.000000 0.000000 0.000000 -0.041932 0.938818 -0.026143 -1.386525 2.243525 1.423257 -0.314798 9.287847 2.969976 3.714585 -15.761932 -4.631305 0.000000 0.000000 0.000000 0.000000 0.000000 0.000000 0.868395 -0.772856 0.076277 -2.098361 5.211437 0.217103 7.032254 -20.948980 -0.338002 -8.207032 16.449923 3.377155 0.000000 0.000000 0.000000 0.000000 0.000000 0.000000 -0.252810 1.140205 55.218534 1.405652 -2.393599 0.741093 -2.274390 0.753719 0.765263 0.000000 0.000000 0.000000 0.677250 1.686098 55.819005 -0.745022 -1.840099 -0.003969 0.238438 5.688338 2.962102 0.000000 0.000000 0.000000
3.134936 73.536497 344.719531 -0.894684 0.537594 -55.850945 -0.205164 0.058972 55.822475 0.063247 0.033703 -0.038031 1.668965 -1.486672 0.231907 0.000000 0.000000 0.000000 -0.034914 1.244562 -0.076736 -1.165424 2.566323 1.624507 -1.548634 8.393837 2.673639 7.175347 -11.998761 -2.840322 0.000000 0.000000 0.000000 0.000000 0.000000 0.000000 0.898768 -0.773019 0.078812 -1.256424 4.515972 0.138903 7.860456 -20.733640 -0.845280 -12.019887 21.841394 7.130626 0.000000 0.000000 0.000000 0.000000 0.000000 0.000000 -0.189454 1.328368 55.357562 1.421801 -2.757509 0.840642 -2.242965 0.823452 0.584706 0.000000 0.000000 0.000000 0.876509 1.880548 56.024015 -0.841878 -1.956760 -0.015078 0.268177 6.005874 3.018369 0.000000 0.000000 0.000000
2.975693 73.564998 344.612641 -1.005990 0.568661 -56.074634 -0.124034 0.081578 56.045480 0.086251 0.021151 -0.038127 2.419077 -1.564024 0.118691 0.000000 0.000000 0.000000 -0.039840 1.578567 -0.124668 -0.939673 2.804050 1.796792 -2.595153 7.774072 2.450636 9.610970 -9.482340 -1.723889 0.000000 0.000000 0.000000 0.000000 0.000000 0.000000 0.922213 -0.737020 0.080298 -0.309110 3.915531 0.065795 8.531160 -17.383214 -1.802050 -15.001870 22.129429 9.674756 0.000000 0.000000 0.000000 0.000000 0.000000 0.000000 -0.094644 1.546943 55.556091 1.365012 -3.100588 0.931059 -2.147155 0.906926 0.355694 0.000000 0.000000 0.000000 1.098653 2.108906 56.290125 -0.970313 -2.055065 -0.034766 0.286338 6.272141 3.032515 0.000000 0.000000 0.000000
2.793093 73.600694 344.467089 -1.028459 0.569248 -56.158547 -0.022103 0.141605 56.132499 0.136442 0.008704 -0.030294 3.592051 -1.815295 -0.046281 0.000000 0.000000 0.000000 -0.234963 1.941614 -0.176665 -0.678978 2.837551 1.905151 -3.775508 7.998395 2.512031 10.357954 -6.849293 -0.534596 0.000000 0.000000 0.000000 0.000000 0.000000 0.000000 0.510300 -1.856502 -0.077130 1.117671 4.346933 0.109163 8.547134 -12.150844 -2.956319 -19.536510 19.833513 11.870462 0.000000 0.000000 0.000000 0.000000 0.000000 0.000000 -0.053751 1.740299 55.612181 1.311094 -3.530034 1.043275 -2.153953 1.357510 0.189472 0.000000 0.000000 0.000000 1.255837 2.265918 56.415275 -1.070506 -2.183335 -0.045463 0.470628 6.312189 2.746817 0.000000 0.000000 0.000000
2.597178 73.640991 344.319121 -0.878878 0.455241 -56.036314 0.096785 0.207753 56.017723 0.652688 -0.490767 0.025876 3.441096 -1.322290 -0.215811 0.000000 0.000000 0.000000 -1.072062 2.832002 -0.259165 -0.490868 2.845142 1.977581 -4.384850 8.619414 2.739044 11.225193 -6.766420 -0.259594 0.000000 0.000000 0.000000 0.000000 0.000000 0.000000 -0.222312 -2.285285 -0.265130 2.280340 4.806894 0.099042 8.187095 -7.700829 -3.930905 -24.902279 16.225747 12.944546 0.000000 0.000000 0.000000 0.000000 0.000000 0.000000 -0.239471 1.879275 55.444280 1.332666 -4.009004 1.178859 -2.361518 1.902044 0.175654 0.000000 0.000000 0.000000 1.283938 2.318388 56.340009 -1.220743 -2.300002 -0.064829 0.494786 6.238656 2.464399 0.000000 0.000000 0.000000
